<mxfile host="app.diagrams.net" modified="2024-01-23T02:00:35.814Z" agent="Mozilla/5.0 (Windows NT 10.0; Win64; x64) AppleWebKit/537.36 (KHTML, like Gecko) Chrome/120.0.0.0 Safari/537.36" etag="QexLiyBvGBxei5DCc-pp" version="22.1.21" type="github">
  <diagram name="第 1 页" id="GVdCaFOaMtBOX9d3o0DQ">
    <mxGraphModel dx="1050" dy="565" grid="1" gridSize="10" guides="1" tooltips="1" connect="1" arrows="1" fold="1" page="1" pageScale="1" pageWidth="1920" pageHeight="1200" math="0" shadow="0">
      <root>
        <mxCell id="0" />
        <mxCell id="1" parent="0" />
        <mxCell id="ovQgp5x5YtPKfkYwYnp0-1" value="" style="rounded=0;whiteSpace=wrap;html=1;fillColor=#f5f5f5;fontColor=#333333;strokeColor=#666666;" parent="1" vertex="1">
          <mxGeometry x="300" y="110" width="800" height="580" as="geometry" />
        </mxCell>
        <mxCell id="ovQgp5x5YtPKfkYwYnp0-2" value="雷达驱动模块" style="html=1;fillColor=#dae8fc;strokeColor=#6c8ebf;shadow=1;rounded=0;glass=0;sketch=0;" parent="1" vertex="1">
          <mxGeometry x="560" y="160" width="235" height="470" as="geometry" />
        </mxCell>
        <mxCell id="ovQgp5x5YtPKfkYwYnp0-3" value="速腾、奥斯特软件开发工具包" style="html=1;fillColor=#dae8fc;strokeColor=#6c8ebf;fontStyle=0" parent="1" vertex="1">
          <mxGeometry x="330" y="376" width="160" height="40" as="geometry" />
        </mxCell>
        <mxCell id="ovQgp5x5YtPKfkYwYnp0-35" value="" style="endArrow=classic;html=1;rounded=0;exitX=1;exitY=0.5;exitDx=0;exitDy=0;entryX=0;entryY=0.5;entryDx=0;entryDy=0;" parent="1" source="ovQgp5x5YtPKfkYwYnp0-3" target="ovQgp5x5YtPKfkYwYnp0-2" edge="1">
          <mxGeometry width="50" height="50" relative="1" as="geometry">
            <mxPoint x="480" y="394.77" as="sourcePoint" />
            <mxPoint x="550" y="394.58000000000015" as="targetPoint" />
          </mxGeometry>
        </mxCell>
        <mxCell id="ovQgp5x5YtPKfkYwYnp0-36" value="1" style="edgeLabel;html=1;align=center;verticalAlign=middle;resizable=0;points=[];fontStyle=1" parent="ovQgp5x5YtPKfkYwYnp0-35" vertex="1" connectable="0">
          <mxGeometry x="0.3533" relative="1" as="geometry">
            <mxPoint x="-17" y="-15" as="offset" />
          </mxGeometry>
        </mxCell>
        <mxCell id="ovQgp5x5YtPKfkYwYnp0-37" value="日志模块" style="html=1;fillColor=#dae8fc;strokeColor=#6c8ebf;" parent="1" vertex="1">
          <mxGeometry x="910" y="296" width="120" height="40" as="geometry" />
        </mxCell>
        <mxCell id="ovQgp5x5YtPKfkYwYnp0-38" value="故障监测模块" style="html=1;fillColor=#dae8fc;strokeColor=#6c8ebf;" parent="1" vertex="1">
          <mxGeometry x="910" y="431" width="120" height="40" as="geometry" />
        </mxCell>
        <mxCell id="ovQgp5x5YtPKfkYwYnp0-39" value="ROS可视化" style="html=1;fillColor=#dae8fc;strokeColor=#6c8ebf;" parent="1" vertex="1">
          <mxGeometry x="910" y="567" width="120" height="40" as="geometry" />
        </mxCell>
        <mxCell id="ovQgp5x5YtPKfkYwYnp0-54" value="感知传感器模块" style="html=1;fillColor=#dae8fc;strokeColor=#6c8ebf;" parent="1" vertex="1">
          <mxGeometry x="910" y="160" width="120" height="40" as="geometry" />
        </mxCell>
        <mxCell id="ovQgp5x5YtPKfkYwYnp0-62" value="" style="endArrow=classic;html=1;rounded=0;exitX=1;exitY=0.046;exitDx=0;exitDy=0;exitPerimeter=0;entryX=0;entryY=0.5;entryDx=0;entryDy=0;" parent="1" source="ovQgp5x5YtPKfkYwYnp0-2" target="ovQgp5x5YtPKfkYwYnp0-54" edge="1">
          <mxGeometry width="50" height="50" relative="1" as="geometry">
            <mxPoint x="830" y="230" as="sourcePoint" />
            <mxPoint x="880" y="180" as="targetPoint" />
          </mxGeometry>
        </mxCell>
        <mxCell id="ovQgp5x5YtPKfkYwYnp0-63" value="2" style="edgeLabel;html=1;align=center;verticalAlign=middle;resizable=0;points=[];fontStyle=1" parent="ovQgp5x5YtPKfkYwYnp0-62" vertex="1" connectable="0">
          <mxGeometry x="0.2892" y="-3" relative="1" as="geometry">
            <mxPoint x="-19" y="-14" as="offset" />
          </mxGeometry>
        </mxCell>
        <mxCell id="ovQgp5x5YtPKfkYwYnp0-64" value="" style="endArrow=classic;html=1;rounded=0;exitX=1.013;exitY=0.329;exitDx=0;exitDy=0;exitPerimeter=0;entryX=0;entryY=0.5;entryDx=0;entryDy=0;" parent="1" source="ovQgp5x5YtPKfkYwYnp0-2" target="ovQgp5x5YtPKfkYwYnp0-37" edge="1">
          <mxGeometry width="50" height="50" relative="1" as="geometry">
            <mxPoint x="805" y="192" as="sourcePoint" />
            <mxPoint x="920" y="190" as="targetPoint" />
          </mxGeometry>
        </mxCell>
        <mxCell id="ovQgp5x5YtPKfkYwYnp0-65" value="3" style="edgeLabel;html=1;align=center;verticalAlign=middle;resizable=0;points=[];fontStyle=1" parent="ovQgp5x5YtPKfkYwYnp0-64" vertex="1" connectable="0">
          <mxGeometry x="0.2892" y="-3" relative="1" as="geometry">
            <mxPoint x="-19" y="-14" as="offset" />
          </mxGeometry>
        </mxCell>
        <mxCell id="ovQgp5x5YtPKfkYwYnp0-66" value="" style="endArrow=classic;html=1;rounded=0;exitX=1.003;exitY=0.62;exitDx=0;exitDy=0;exitPerimeter=0;entryX=0;entryY=0.5;entryDx=0;entryDy=0;" parent="1" source="ovQgp5x5YtPKfkYwYnp0-2" target="ovQgp5x5YtPKfkYwYnp0-38" edge="1">
          <mxGeometry width="50" height="50" relative="1" as="geometry">
            <mxPoint x="795" y="302.5" as="sourcePoint" />
            <mxPoint x="910" y="303.5" as="targetPoint" />
          </mxGeometry>
        </mxCell>
        <mxCell id="ovQgp5x5YtPKfkYwYnp0-67" value="4" style="edgeLabel;html=1;align=center;verticalAlign=middle;resizable=0;points=[];fontStyle=1" parent="ovQgp5x5YtPKfkYwYnp0-66" vertex="1" connectable="0">
          <mxGeometry x="0.2892" y="-3" relative="1" as="geometry">
            <mxPoint x="-19" y="-14" as="offset" />
          </mxGeometry>
        </mxCell>
        <mxCell id="ovQgp5x5YtPKfkYwYnp0-68" value="" style="endArrow=classic;html=1;rounded=0;exitX=0.996;exitY=0.578;exitDx=0;exitDy=0;exitPerimeter=0;entryX=0;entryY=0.5;entryDx=0;entryDy=0;" parent="1" target="ovQgp5x5YtPKfkYwYnp0-39" edge="1">
          <mxGeometry width="50" height="50" relative="1" as="geometry">
            <mxPoint x="794.06" y="586.66" as="sourcePoint" />
            <mxPoint x="910" y="519.5" as="targetPoint" />
          </mxGeometry>
        </mxCell>
        <mxCell id="ovQgp5x5YtPKfkYwYnp0-69" value="5" style="edgeLabel;html=1;align=center;verticalAlign=middle;resizable=0;points=[];fontStyle=1" parent="ovQgp5x5YtPKfkYwYnp0-68" vertex="1" connectable="0">
          <mxGeometry x="0.2892" y="-3" relative="1" as="geometry">
            <mxPoint x="-19" y="-14" as="offset" />
          </mxGeometry>
        </mxCell>
      </root>
    </mxGraphModel>
  </diagram>
</mxfile>
